<?xml version="1.0" encoding="utf-8"?>
<!-- Generator: Adobe Illustrator 24.1.2, SVG Export Plug-In . SVG Version: 6.00 Build 0)  -->
<svg version="1.1" id="Layer_1" xmlns="http://www.w3.org/2000/svg" xmlns:xlink="http://www.w3.org/1999/xlink" x="0px" y="0px"
	 viewBox="0 0 1000 1000" style="enable-background:new 0 0 1000 1000;" xml:space="preserve">
<style type="text/css">
	.st0{fill:#F04798;}
	.st1{fill:#E84064;}
	.st2{fill:#264A98;}
	.st3{fill:#F18368;}
	.st4{fill:#91B7C0;}
	.st5{fill:#24489E;}
	.st6{fill:#F0C946;}
	.st7{fill:#8DBECD;}
	.st8{fill:#2F4EA1;}
	.st9{fill:#E3435F;}
	.st10{fill:#F0C662;}
	.st11{fill:#8EBFD0;}
</style>
<g>
	<path class="st0" d="M837.61,581c0.29-3.02,2.39-5.04,4.97-4.78c2.53,0.26,4.49,2.49,4.21,4.81c-0.29,2.41-3.07,4.66-5.53,4.46
		C838.92,585.31,837.38,583.41,837.61,581z"/>
	<g>
		<path class="st1" d="M247.4,488.04l-34.87,34.87c-1.92,1.92-0.56,5.19,2.15,5.19h34.87c1.68,0,3.04-1.36,3.04-3.04v-34.87
			C252.59,487.49,249.32,486.13,247.4,488.04z"/>
		<path class="st2" d="M433.59,461.02v33.23c0,1.68,1.36,3.04,3.04,3.04h30.8c2.65,0,4.03-3.16,2.23-5.11l-30.8-33.23
			C436.98,456.93,433.59,458.26,433.59,461.02z"/>
		<path class="st3" d="M349.65,394.63l18.26-23.14c1.23-1.56,3.59-1.54,4.8,0.03l17.76,23.14c1.53,2,0.11,4.89-2.41,4.89h-36.02
			C349.49,399.56,348.07,396.63,349.65,394.63z"/>
		<path class="st3" d="M222.87,532.94h24.06c5.37,0,9.72,4.35,9.72,9.72v35.12c0,5.37-4.35,9.72-9.72,9.72h-24.06
			c-5.37,0-9.72-4.35-9.72-9.72v-35.12C213.15,537.29,217.5,532.94,222.87,532.94z"/>
		<path class="st4" d="M429.22,518.64v55.72c0,7.27,5.89,13.16,13.16,13.16h16.57c7.27,0,13.16-5.89,13.16-13.16v-55.72
			c0-7.27-5.89-13.16-13.16-13.16h-16.57C435.11,505.48,429.22,511.37,429.22,518.64z"/>
		<path class="st5" d="M291.58,451.05h119.08c4.66,0,8.43,3.45,8.43,7.7v2.38c0,4.25-3.78,7.7-8.43,7.7H291.58
			c-4.66,0-8.43-3.45-8.43-7.7v-2.38C283.15,454.5,286.92,451.05,291.58,451.05z"/>
		<path class="st6" d="M342.8,444.2v0.05h-45.15v-0.05c0-12.47,10.11-22.58,22.58-22.58C332.7,421.62,342.8,431.73,342.8,444.2z"/>
		<path class="st7" d="M373.66,444.44h-7.56c-10.35,0-18.75-8.39-18.75-18.75v-4.28c0-10.35,8.39-18.75,18.75-18.75h7.56
			c10.35,0,18.75,8.39,18.75,18.75v4.28C392.4,436.05,384.01,444.44,373.66,444.44z"/>
		<path class="st0" d="M274,532.94h-2.4c-5.8,0-10.5-4.7-10.5-10.5v-29.08c0-5.8,4.7-10.5,10.5-10.5h2.4c5.8,0,10.5,4.7,10.5,10.5
			v29.08C284.5,528.24,279.8,532.94,274,532.94z"/>
		<path class="st8" d="M415.36,532.94h-2.4c-5.8,0-10.5-4.7-10.5-10.5v-29.08c0-5.8,4.7-10.5,10.5-10.5h2.4
			c5.8,0,10.5,4.7,10.5,10.5v29.08C425.86,528.24,421.16,532.94,415.36,532.94z"/>
		<path class="st6" d="M294.68,587.47h-23.25c-5.7,0-10.32-4.62-10.32-10.32v-28.28c0-5.7,4.62-10.32,10.32-10.32h23.25
			c5.7,0,10.32,4.62,10.32,10.32v28.28C305,582.85,300.38,587.47,294.68,587.47z"/>
		<path class="st9" d="M413.33,587.47h-24.1c-6.17,0-11.17-5-11.17-11.17v-26.58c0-6.17,5-11.17,11.17-11.17h24.1
			c6.17,0,11.17,5,11.17,11.17v26.58C424.51,582.47,419.5,587.47,413.33,587.47z"/>
		<path class="st9" d="M371.73,541.87v42.29c0,1.83-1.49,3.32-3.32,3.32h-7.77v-0.13c0-11.81-9.58-21.39-21.39-21.39
			c-11.81,0-21.39,9.58-21.39,21.39v0.13h-7.27c-1.84,0-3.32-1.49-3.32-3.32v-42.29c0-1.83,1.48-3.32,3.32-3.32h57.83
			C370.24,538.55,371.73,540.04,371.73,541.87z"/>
		<rect x="288.87" y="475.28" class="st10" width="106.93" height="57.66"/>
	</g>
	<path class="st5" d="M629.1,555.19c0.7,4.55,1.02,8.72,2.03,12.71c1.14,4.53,4.16,7.75,8.98,8.3c4.5,0.51,8.17-1.51,10.91-5.08
		c0.87-1.14,1.56-2.42,2.54-3.96c2.68,0.83,5.47,1.69,8.25,2.55c-2.79,10.24-15.33,14.77-23.38,13.55
		c-9.27-1.4-14.79-6.87-16.97-15.8c-1.99-8.14-1.6-16.22,1.64-23.98c4.86-11.62,14.91-14.95,26.21-12.44
		c6.74,1.5,10.35,6.47,10.89,13.74c0.11,1.42,0.02,2.86,0.02,4.52c2.69,0,5.14,0,7.93,0c0.54-1.97,1.04-4.11,1.71-6.2
		c3.91-12.17,13.21-18.58,25.22-17.43c9.81,0.94,16.4,7.78,17.39,18.23c0.23,2.47,0.03,4.97,0.03,7.64
		c1.36,0.31,2.45,0.56,3.92,0.89c-0.25,1.66-0.48,3.16-0.76,5.06c-12.82-0.68-25.5-1.34-38.71-2.04c-0.13,8.56,0.89,16.34,7.2,22.32
		c4.36,4.13,10.62,3.56,15.61-1.05c0.96-0.89,1.83-1.9,2.61-2.95c3.95-5.28,4.4-5.37,10.76-1.82c-3.47,9.24-11.93,15.46-21.14,15.54
		c-10.02,0.09-17.79-5.05-21.24-15.06c-1.86-5.39-2.47-11.2-3.73-17.26C655.07,555.19,642.65,555.19,629.1,555.19z M677.87,550.06
		c8.73,0.38,17.18,0.76,26.54,1.17c-0.55-4.32-0.55-8.15-1.58-11.68c-1.69-5.78-6.79-8.21-12.72-6.73
		C683.38,534.5,678.18,541.69,677.87,550.06z M630.94,549.25c7.11,0,13.99,0,20.81,0c1.17-7.02-1.44-11.27-7.34-12.26
		C638.16,535.95,632.32,541.16,630.94,549.25z"/>
	<path class="st10" d="M486.59,574.82c1.83-0.62,3.72-1.08,5.45-1.88c2.05-0.95,3.25-0.63,4.39,1.46c0.85,1.56,2.24,2.95,3.69,4.01
		c3.25,2.36,7.3,2.31,9.85-0.03c2.92-2.68,3.32-6.28,1.49-9.37c-1.59-2.67-4.21-4.89-6.76-6.8c-4.81-3.6-10.28-6.39-14.77-10.33
		c-6.79-5.96-8.6-13.93-6.82-22.68c1.87-9.18,8.68-14.91,19.95-15.97c8.4-0.79,16.12,1.43,21.01,8.96
		c4.95,7.64,4.95,15.78,1.05,24.36c-2.88-1.02-5.54-1.96-7.31-2.59c0-4.55,0.43-8.59-0.1-12.5c-0.86-6.44-5.7-10.56-11.71-10.71
		c-6.94-0.17-11.63,3.27-13.12,9.98c-1.56,7,0.24,13.16,5.87,17.72c3.03,2.45,6.7,4.1,9.9,6.38c3.27,2.34,6.83,4.58,9.34,7.63
		c4.6,5.59,4.68,13.43,1.02,18.8c-3.38,4.96-10.98,7.36-18.14,5.74C494.27,585.51,489.23,581.27,486.59,574.82z"/>
	<path class="st7" d="M550.78,537.48c14.4-0.57,24.68,9.89,24.46,23.82c-0.24,15.35-10.93,26.28-25.96,26.2
		c-14.81-0.08-24.85-10.3-24.89-25.14C524.34,548.75,534.1,536.91,550.78,537.48z M550.31,544.45c-1.54,0.24-3.14,0.29-4.61,0.74
		c-10.88,3.32-15.23,17.64-8.59,28.16c5.55,8.8,17.14,9.62,23.69,1.52c4.61-5.69,5.8-12.27,3.93-19.33
		C562.84,548.47,557.67,544.61,550.31,544.45z"/>
	<path class="st1" d="M752.43,543.09c2.05-0.74,4.11-1.49,6.36-2.3c-0.2-3.59-2.03-5.99-5.35-7.36c-3.92-1.62-7.57-0.51-10.04,2.37
		c-2.32,2.7-4.26,6.1-5.22,9.52c-2.23,7.99-1.89,16.18,0.09,24.21c0.55,2.25,1.58,4.5,2.86,6.44c3.77,5.7,11.25,6.06,14.72,0.21
		c2.53-4.26,3.57-9.41,5.61-15.06c1.87,0.19,4.87,0.5,8.12,0.84c-0.52,8.28-2.66,15.43-8.67,20.88c-8.1,7.36-20.85,5.84-27.46-3.15
		c-8.15-11.1-8.34-34.13-0.38-45.43c5.09-7.22,13.3-10.14,22.24-7.91c6.95,1.74,11.81,7.92,12.78,15.85
		c0.3,2.48-0.24,3.69-2.86,3.93c-1.8,0.17-3.57,0.74-5.32,1.23C754.3,548.92,754.3,548.94,752.43,543.09z"/>
	<path class="st9" d="M600.24,537.08c8.46,2.81,15.88,3.37,23.67,0.41c0.71,2.14,1.38,4.17,2.4,7.24
		c-5.81,0.73-11.04,1.38-17.31,2.16c-0.45,12.8-0.92,26.13-1.41,40.13c-2.52,0.13-5.43,0.28-9.44,0.48
		C598.84,570.59,599.53,554.14,600.24,537.08z"/>
	<path class="st10" d="M586.66,587.51c-2.98,0-5.57,0-7.83,0c0-19.55,0-38.91,0-58.26c3.52,0,6.22,0,9.16,0
		C587.55,548.77,587.11,568,586.66,587.51z"/>
	<path class="st10" d="M588.66,516.09c0,3.46-2.3,5.53-6.18,5.58c-3.12,0.03-4.93-1.97-4.83-5.35c0.1-3.5,2.54-5.72,6.18-5.62
		C587.35,510.78,588.57,512.93,588.66,516.09z"/>
	<path class="st1" d="M332.22,503.94c0-5.16-4.18-9.34-9.34-9.34s-9.34,4.18-9.34,9.34c0,0.06,0,0.12,0,0.18h0v28.55h18.68v-28.55h0
		C332.21,504.06,332.22,504,332.22,503.94z"/>
	<path class="st0" d="M808.4,529.54c-14.98,0-27.12,12.79-27.12,28.57c0,15.77,12.15,28.57,27.12,28.57
		c14.98,0,27.12-12.79,27.12-28.57C835.53,542.34,823.39,529.54,808.4,529.54z M808.4,580.23c-11.4,0-20.68-9.92-20.68-22.12
		c0-12.2,9.28-22.12,20.68-22.12c11.4,0,20.68,9.92,20.68,22.12C829.08,570.31,819.8,580.23,808.4,580.23z"/>
	<ellipse transform="matrix(0.5 -0.866 0.866 0.5 -75.9789 942.0917)" class="st11" cx="777.89" cy="536.85" rx="2.78" ry="4.42"/>
	<ellipse transform="matrix(0.5 -0.866 0.866 0.5 -112.1803 979.225)" class="st2" cx="791.94" cy="586.76" rx="1.73" ry="3.65"/>
	<ellipse transform="matrix(0.866 -0.5 0.5 0.866 -154.7746 471.202)" class="st3" cx="801.89" cy="524.41" rx="4.42" ry="2.33"/>
	<ellipse transform="matrix(0.866 -0.5 0.5 0.866 -183.9376 467.3812)" class="st3" cx="780.18" cy="576.92" rx="4.42" ry="2.33"/>
	
		<ellipse transform="matrix(0.9551 -0.2962 0.2962 0.9551 -126.0275 260.8751)" class="st2" cx="797.93" cy="546.35" rx="2.46" ry="3.62"/>
	<g>
		<path class="st7" d="M834.25,542.41l-0.51,3.67c0,0-15.19,2.26-23.93-15.8l2.8-2.08c1.14,1.78,2.78,3.98,4.94,6.13
			C822.36,539.11,828.05,541.84,834.25,542.41z"/>
		<path class="st7" d="M835.26,535.17l-0.6,4.3c-5.56-0.45-10.57-2.86-14.95-7.18c-2.08-2.05-3.64-4.18-4.71-5.87l3.83-2.84
			C821.54,527.45,827.02,533.6,835.26,535.17z"/>
		<path class="st7" d="M836.44,526.72l-0.77,5.49c-7.14-1.49-12.03-6.99-14.43-10.39l3.61-2.68
			C826.98,522.04,830.72,525.69,836.44,526.72z"/>
		<path class="st7" d="M837.45,519.51l-0.59,4.27c-4.8-0.88-7.9-3.95-9.65-6.39l2.8-2.07C831.64,517.15,834.09,518.89,837.45,519.51
			z"/>
		<path class="st7" d="M838.96,508.68l-1.1,7.9c-2.55-0.49-4.3-1.78-5.46-3.03L838.96,508.68z"/>
		<circle class="st0" cx="838.97" cy="508.63" r="4.09"/>
	</g>
	<path class="st5" d="M744.8,487.11c2.57,0.83,5.07,1.63,7.56,2.44c-2.27,7.07-9.21,12.3-16.78,12.85
		c-9.07,0.65-15.65-2.55-18.9-10.05c-4.46-10.31-4.05-20.76,1.34-30.63c4.59-8.39,15.81-11.62,24.5-7.57
		c3.79,1.77,6.12,4.81,6.89,8.88c0.45,2.37,0.47,4.83,0.71,7.44c1.79,0.35,3.78,0.74,6.21,1.21c-0.28,1.89-0.55,3.71-0.75,5.04
		c-11.22,0-21.98,0-33.74,0c0.85,4.46,1.09,8.64,2.48,12.38c2.98,8.03,11.49,9.3,17.14,2.82
		C742.67,490.55,743.56,488.93,744.8,487.11z M723.64,470.24c6.12,0,12.25,0,18.27,0c1.21-6.56-0.95-10.19-6.21-11.08
		C729.93,458.18,724.7,463.08,723.64,470.24z"/>
	<path class="st10" d="M572.62,487.11c2.57,0.83,5.07,1.63,7.56,2.44c-2.27,7.07-9.21,12.3-16.78,12.85
		c-9.07,0.65-15.65-2.55-18.9-10.05c-4.46-10.31-4.05-20.76,1.34-30.63c4.59-8.39,15.81-11.62,24.5-7.57
		c3.79,1.77,6.12,4.81,6.89,8.88c0.45,2.37,0.47,4.83,0.71,7.44c1.79,0.35,3.78,0.74,6.21,1.21c-0.28,1.89-0.55,3.71-0.75,5.04
		c-11.22,0-21.98,0-33.74,0c0.85,4.46,1.09,8.64,2.48,12.38c2.98,8.03,11.49,9.3,17.14,2.82
		C570.48,490.55,571.37,488.93,572.62,487.11z M551.45,470.24c6.12,0,12.25,0,18.27,0c1.21-6.56-0.95-10.19-6.21-11.08
		C557.74,458.18,552.51,463.08,551.45,470.24z"/>
	<path class="st9" d="M667.84,447.63c2.36-1.56,4.38-2.89,6.61-4.37c4.75,8.04,9.42,15.94,14.41,24.38
		c6.04-8.2,11.66-15.82,17.5-23.74c2.09,1.48,4.03,2.85,6.24,4.42c-6.33,8.66-12.51,17.12-18.9,25.86
		c5.91,6.95,11.82,13.9,17.88,21.03c-1.76,1.67-3.51,3.33-5.73,5.45c-5.77-6.62-11.4-13.08-17.24-19.8
		c-5.39,7.16-10.72,14.24-16.26,21.62c-2.18-1.68-4.17-3.21-6.4-4.92c4.85-6.3,9.59-12.44,14.31-18.6c3.69-4.81,3.55-4.73,0.39-9.72
		c-4.05-6.38-7.86-12.91-11.76-19.38C668.52,449.24,668.27,448.56,667.84,447.63z"/>
	<path class="st3" d="M638.35,456.15c-5.03,8.61-7.6,17.39-6.06,26.97c0.42,2.6,1.24,5.28,2.53,7.55c3.89,6.88,11.8,7.2,16.52,0.84
		c3.27-4.42,4.58-9.69,4.1-14.89c-0.64-6.97-2.39-13.84-3.76-20.74c-0.28-1.4-1-2.71-1.51-4.04c0.34-0.22,0.52-0.43,0.71-0.44
		c7.76-0.57,7.76-0.57,10.4,6.87c3.26,9.18,4.35,18.51,1.7,28.03c-3.33,11.97-13.08,18.12-24.65,15.63
		c-7.48-1.61-13.16-8.2-14.72-17.32c-1.8-10.56,0.57-20.37,5.93-29.49c0.45-0.77,2.14-1.35,3.08-1.16
		C634.49,454.33,636.23,455.3,638.35,456.15z"/>
	<path class="st7" d="M621.12,492.65c0.53,1.75,1.13,3.69,1.71,5.6c-6.18,3.18-21.55,5.19-30.46,3.76
		c0.43-22.33,0.86-44.81,1.3-67.52c3.46,0,6.18,0,8.98,0c-0.5,20.23-0.99,40.39-1.51,61.57
		C608.2,494.85,614.41,493.79,621.12,492.65z"/>
	<path class="st3" d="M536.63,459.69c-2.22-19.36-17.58-28.34-39.75-24.48c-1.41,0.25-3.02,0.37-4.13,1.14
		c-0.12,0.08-0.22,0.17-0.34,0.26h-7.56v11.72l9.14-2.69c0,0,0,0,0.01,0c0,14.24,0.08,29.82-0.12,45.4
		c-0.01,1.14-0.71,2.33-1.51,3.44h-4.59l-2.77,8.3c-0.06,0.06-0.11,0.11-0.16,0.18c0.04,0,0.07,0,0.11,0l-0.11,0.32l4.4-0.26
		c6.33,0.16,11.29,0.53,16.08-0.19C530.5,499.05,538.92,479.75,536.63,459.69z M503.62,495.43c0-17.59,0-35.21,0-53.13
		c15.02-0.8,23.34,6.41,24.63,19.81C529.94,479.63,519.78,493.15,503.62,495.43z"/>
</g>
</svg>
